<svg xmlns="http://www.w3.org/2000/svg" xmlns:xlink="http://www.w3.org/1999/xlink" width="1366" zoomAndPan="magnify" viewBox="0 0 1024.5 576" height="768" preserveAspectRatio="xMidYMid meet" version="1.0"><defs><clipPath id="910e0c69c7"><path d="M 437.742188 284.25 L 441.488281 284.25 L 441.488281 288 L 437.742188 288 Z M 437.742188 284.25 " clip-rule="nonzero"/></clipPath><clipPath id="b7be46debe"><path d="M 439.613281 284.25 C 440.113281 284.25 440.589844 284.449219 440.941406 284.800781 C 441.292969 285.152344 441.488281 285.628906 441.488281 286.125 C 441.488281 286.621094 441.292969 287.101562 440.941406 287.449219 C 440.589844 287.800781 440.113281 288 439.613281 288 C 439.117188 288 438.640625 287.800781 438.289062 287.449219 C 437.9375 287.101562 437.742188 286.621094 437.742188 286.125 C 437.742188 285.628906 437.9375 285.152344 438.289062 284.800781 C 438.640625 284.449219 439.117188 284.25 439.613281 284.25 Z M 439.613281 284.25 " clip-rule="nonzero"/></clipPath><clipPath id="76d541b6b9"><path d="M 0.742188 0.25 L 4.488281 0.25 L 4.488281 4 L 0.742188 4 Z M 0.742188 0.25 " clip-rule="nonzero"/></clipPath><clipPath id="df723bb300"><path d="M 2.613281 0.25 C 3.113281 0.25 3.589844 0.449219 3.941406 0.800781 C 4.292969 1.152344 4.488281 1.628906 4.488281 2.125 C 4.488281 2.621094 4.292969 3.101562 3.941406 3.449219 C 3.589844 3.800781 3.113281 4 2.613281 4 C 2.117188 4 1.640625 3.800781 1.289062 3.449219 C 0.9375 3.101562 0.742188 2.621094 0.742188 2.125 C 0.742188 1.628906 0.9375 1.152344 1.289062 0.800781 C 1.640625 0.449219 2.117188 0.25 2.613281 0.25 Z M 2.613281 0.25 " clip-rule="nonzero"/></clipPath><clipPath id="61f19bbafb"><rect x="0" width="5" y="0" height="4"/></clipPath><clipPath id="6d755f36c0"><path d="M 3 39.132812 L 1024 39.132812 L 1024 529.390625 L 3 529.390625 Z M 3 39.132812 " clip-rule="nonzero"/></clipPath></defs><g clip-path="url(#910e0c69c7)"><g clip-path="url(#b7be46debe)"><g transform="matrix(1, 0, 0, 1, 437, 284)"><g clip-path="url(#61f19bbafb)"><g clip-path="url(#76d541b6b9)"><g clip-path="url(#df723bb300)"><path fill="#ffffff" d="M 0.742188 0.25 L 4.488281 0.25 L 4.488281 4 L 0.742188 4 Z M 0.742188 0.25 " fill-opacity="1" fill-rule="nonzero"/></g></g></g></g></g></g><g clip-path="url(#6d755f36c0)"><path fill="#81a38c" d="M 407.578125 290.195312 C 470.191406 281.089844 532.941406 268.40625 593.304688 255.019531 C 553.242188 242.863281 514.03125 228.183594 476.109375 212.210938 C 443.226562 198.261719 410.652344 183.667969 378.234375 168.699219 C 329.679688 146.28125 281.503906 123.085938 233.078125 100.378906 C 206.546875 87.921875 177.128906 71.386719 147.171875 58.371094 C 126.984375 49.601562 106.570312 42.441406 86.636719 39.21875 C 106.734375 41.796875 127.441406 48.3125 147.972656 56.445312 C 178.339844 68.472656 208.289062 84.042969 235.214844 95.628906 C 284.316406 116.785156 333.210938 138.371094 382.402344 159.296875 C 415.148438 173.226562 448.003906 186.867188 481.160156 199.808594 C 528.550781 218.460938 577.933594 234.835938 628.289062 247.136719 C 661.398438 239.574219 693.613281 231.96875 724.492188 224.816406 C 758.835938 216.917969 793.570312 208.5 828.570312 202.210938 C 852.226562 197.964844 876 194.683594 899.851562 193.125 C 911.660156 192.355469 926.613281 191.398438 940.484375 193.394531 C 951.097656 194.921875 961.09375 198.160156 969.121094 203.945312 C 982.585938 213.648438 983.703125 224.921875 979.46875 235.464844 C 974.929688 246.773438 961.503906 257.707031 951.371094 263.152344 C 936.601562 271.089844 920.539062 276.679688 903.925781 280.574219 C 879.816406 286.222656 854.558594 288.324219 830.660156 289.21875 C 769.746094 291.414062 708.570312 284.058594 648.753906 269.988281 C 646.257812 269.402344 643.765625 268.804688 641.273438 268.195312 C 579.964844 282.503906 515.441406 296.828125 450.472656 307.851562 C 456.972656 310.476562 463.480469 313.085938 469.992188 315.683594 C 527.128906 338.484375 584.671875 360.28125 641.757812 383.199219 C 679.589844 398.644531 717.449219 414.039062 755.289062 429.492188 C 793.117188 444.941406 830.914062 460.378906 869.015625 475.082031 C 919.847656 494.703125 971.027344 513.238281 1023.082031 529.539062 C 970.21875 515.773438 918.066406 499.882812 866.316406 482.578125 C 827.503906 469.601562 788.914062 455.984375 750.507812 441.792969 C 712.148438 427.621094 674.023438 412.828125 635.804688 398.324219 C 578.421875 376.160156 520.5625 355.21875 463.164062 333.085938 C 446.699219 326.734375 430.277344 320.277344 413.90625 313.679688 C 403.355469 315.25 392.804688 316.714844 382.269531 318.0625 C 300.222656 328.5625 219.007812 331.886719 144.171875 322.019531 C 119.355469 318.707031 93.265625 312.46875 69.914062 301.363281 C 53.753906 293.675781 38.890625 283.675781 26.53125 270.800781 C 4.277344 247.5625 0.761719 227.601562 6.15625 212.6875 C 9.5 203.433594 16.425781 195.550781 26.121094 189.574219 C 41.0625 180.359375 62.992188 175.574219 85.246094 176.351562 C 94.511719 176.675781 103.757812 177.605469 112.933594 179.003906 C 121.992188 180.382812 130.984375 182.207031 139.867188 184.335938 C 175.894531 192.964844 211.097656 205.261719 245.769531 219.285156 C 296.949219 239.988281 346.984375 264.425781 397.03125 285.734375 C 400.542969 287.230469 404.0625 288.714844 407.578125 290.195312 Z M 369.480469 295.273438 C 325.980469 276.671875 282.351562 256.4375 237.925781 238.910156 C 204.136719 225.578125 169.890625 213.804688 134.835938 205.671875 C 126.539062 203.746094 118.140625 202.101562 109.683594 200.875 C 101.347656 199.664062 92.957031 198.875 84.546875 198.640625 C 63.53125 198.058594 42.632812 202.8125 32.046875 213.644531 C 22.824219 223.078125 25.621094 236.527344 43.246094 254.679688 C 56.351562 268.210938 72.820312 277.800781 90.496094 284.679688 C 108.820312 291.8125 128.457031 296.007812 147.265625 298.425781 C 217.226562 307.53125 292.863281 304.519531 369.480469 295.273438 Z M 682.09375 258.585938 C 731.003906 267.378906 780.511719 271.6875 829.816406 269.289062 C 852.441406 268.226562 876.347656 266.050781 899.128906 260.503906 C 913.917969 256.898438 928.230469 251.859375 941.347656 244.675781 C 946.882812 241.644531 954.171875 236.421875 958.191406 230.410156 C 959.328125 228.707031 960.386719 227.039062 960.085938 225.269531 C 959.835938 223.8125 958.5 222.714844 956.648438 221.402344 C 951.289062 217.605469 944.535156 215.800781 937.484375 214.84375 C 925.140625 213.167969 911.855469 214.273438 901.367188 215.039062 C 878.351562 216.71875 855.429688 220.085938 832.625 224.339844 C 798.019531 230.792969 763.6875 239.304688 729.738281 247.324219 C 714.171875 250.976562 698.273438 254.753906 682.09375 258.585938 Z M 682.09375 258.585938 " fill-opacity="1" fill-rule="evenodd"/></g></svg>